<svg id="AlphaIcon" version="1.1" xmlns="http://www.w3.org/2000/svg" viewBox="0 0 140 140"><path d="M 92.137 32.283 L 107.698 32.283 L 98.27 70.061 C 96.437 77.24 95.188 81.647 94.516 83.277 C 96.957 93.286 100.497 98.29 105.134 98.29 C 110.627 98.29 113.466 94.918 113.649 88.173 L 116.944 88.173 C 116.769 94.482 115.458 99.595 113.008 103.513 C 110.627 107.372 107.485 109.304 103.579 109.304 C 100.345 109.304 97.935 108.135 96.346 105.795 C 94.762 103.457 93.054 98.67 91.222 91.436 C 84.875 103.348 74.5 109.304 60.097 109.304 C 50.272 109.304 42.46 105.906 36.663 99.107 C 30.866 92.252 27.966 82.462 27.966 69.733 C 27.966 57.224 31.14 47.487 37.487 40.525 C 43.833 33.561 51.462 30.082 60.372 30.082 C 66.659 30.082 71.815 32.068 75.842 36.039 C 79.869 40.009 83.44 46.481 86.553 55.457 L 92.137 32.283 Z M 84.08 64.267 C 81.213 55.511 78.009 48.683 74.468 43.787 C 70.93 38.836 66.688 36.363 61.744 36.363 C 50.577 36.363 44.992 48.003 44.992 71.284 C 44.992 93.366 50.333 104.408 61.013 104.408 C 70.289 104.408 77.154 94.673 81.609 75.199 L 84.08 64.267 Z" style=""></path></svg>